<svg width="1923" height="2213" viewBox="0 0 1923 2213" fill="none" xmlns="http://www.w3.org/2000/svg">
<path d="M183.275 1.02173C127.008 7.15506 78.2081 34.7551 45.1415 79.0217C25.0081 105.955 11.4081 135.422 3.00813 170.355C0.741467 179.955 0.608134 220.355 0.208134 1099.02C-0.191866 2117.95 -0.991866 2029.42 8.60813 2058.09C30.4748 2123.29 87.0081 2180.49 150.875 2201.55C179.141 2211.02 225.408 2215.02 253.941 2210.49C294.341 2204.22 493.008 2170.62 656.608 2142.35C690.341 2136.62 766.208 2123.69 825.275 2113.82C985.942 2086.75 1047.27 2076.35 1088.61 2069.02C1109.14 2065.42 1168.87 2055.29 1221.27 2046.49C1312.07 2031.15 1416.61 2013.29 1475.94 2003.02C1491.01 2000.49 1531.81 1993.55 1566.61 1987.55C1697.14 1965.55 1752.87 1955.55 1761.27 1953.02C1781.94 1946.49 1807.01 1933.69 1822.07 1922.09C1832.87 1913.82 1850.47 1895.55 1858.74 1884.35C1874.07 1863.29 1889.54 1825.02 1895.94 1792.22C1899.54 1773.55 1899.41 1762.09 1894.61 1680.35C1892.34 1642.22 1890.61 1599.15 1890.61 1582.35C1890.61 1554.35 1889.81 1538.75 1884.61 1456.35C1880.87 1396.22 1879.27 1369.69 1872.61 1256.35C1868.87 1193.15 1865.27 1132.62 1864.74 1127.95C1864.34 1122.75 1864.61 1122.09 1867.67 1120.89C1893.94 1110.89 1910.61 1092.62 1918.61 1065.02C1923.94 1046.75 1923.41 1013.82 1915.94 899.022C1915.27 887.955 1912.47 844.222 1909.94 801.688C1893.67 536.488 1895.67 563.022 1891.67 545.688C1882.61 505.822 1862.21 470.355 1832.34 442.222L1823.01 433.555L1822.07 424.222C1820.07 403.822 1816.34 390.355 1807.01 370.488C1790.74 335.288 1759.41 301.422 1728.61 285.555C1709.14 275.555 1704.07 274.355 1577.94 251.022C1539.81 243.955 1484.61 233.688 1455.27 228.222C1425.94 222.755 1383.94 214.888 1361.94 210.888C1339.94 206.888 1301.01 199.688 1275.27 194.888C1249.67 190.088 1207.94 182.355 1182.61 177.688C1157.27 173.022 1115.67 165.288 1089.94 160.488C1064.34 155.688 1021.67 147.822 995.275 143.022C968.875 138.222 923.541 129.822 894.608 124.355C865.675 118.888 812.608 109.022 776.608 102.355C740.741 95.6883 692.742 86.6216 669.942 82.355C647.275 78.0883 616.875 72.3549 602.608 69.6882C537.275 57.5549 480.475 47.0217 449.275 41.0217C412.875 34.0884 311.141 14.8883 263.941 6.22168C232.741 0.488347 204.875 -1.37827 183.275 1.02173ZM351.808 209.688C378.875 215.422 405.675 231.022 430.208 255.422C464.075 289.022 484.075 325.955 494.475 373.688C498.475 392.088 497.275 374.755 513.275 657.022C516.208 708.355 520.741 787.688 526.608 889.688C531.808 979.155 532.475 993.288 537.942 1102.35C543.008 1203.42 546.475 1270.22 550.608 1344.35C555.541 1431.02 559.808 1509.02 561.942 1550.35C563.142 1572.75 564.608 1595.15 565.408 1600.35C567.941 1618.35 576.608 1630.09 591.808 1635.82C598.475 1638.35 601.008 1638.62 616.608 1637.82C637.008 1636.89 851.808 1619.02 923.942 1612.35C976.208 1607.42 986.741 1606.22 1097.94 1593.15C1205.94 1580.35 1343.54 1564.35 1407.94 1557.02C1440.61 1553.29 1469.14 1549.82 1471.27 1549.15C1473.54 1548.62 1475.27 1547.29 1475.27 1546.22C1475.27 1542.49 1398.07 1544.75 1133.94 1556.35C1092.21 1558.22 1047.81 1560.35 1035.41 1561.02C1023.14 1561.82 1012.61 1562.22 1012.34 1561.82C1011.54 1561.02 1040.47 1515.29 1043.14 1513.15C1045.14 1511.55 1057.41 1509.95 1136.61 1501.69C1168.21 1498.35 1207.14 1494.09 1223.27 1492.35C1239.41 1490.62 1280.47 1486.09 1314.61 1482.35C1561.94 1455.42 1556.87 1456.09 1552.21 1451.42C1551.01 1450.22 1532.47 1450.22 1470.74 1451.42C1381.94 1453.29 1234.87 1457.15 1135.54 1460.49C1099.67 1461.55 1070.07 1462.35 1069.81 1461.95C1069.54 1461.69 1075.94 1450.89 1084.07 1437.82C1094.47 1421.42 1099.67 1414.22 1101.67 1413.69C1103.27 1413.42 1112.47 1412.49 1121.94 1411.69C1138.61 1410.35 1153.27 1408.89 1275.27 1397.02C1305.41 1394.09 1346.21 1390.22 1365.94 1388.35C1385.81 1386.49 1438.21 1381.42 1482.61 1377.02C1619.14 1363.55 1619.67 1363.55 1615.81 1358.89C1614.61 1357.42 1608.47 1357.02 1587.41 1357.02C1541.01 1357.02 1213.41 1362.75 1153.41 1364.49C1136.74 1365.02 1125.14 1364.89 1125.54 1364.22C1129.67 1357.42 1144.87 1332.89 1149.94 1324.89L1156.34 1314.75L1184.47 1312.49C1199.94 1311.29 1228.21 1309.02 1247.27 1307.55C1275.67 1305.42 1350.07 1299.55 1390.61 1296.35C1395.41 1295.95 1419.67 1293.82 1444.61 1291.69C1469.54 1289.55 1518.74 1285.29 1553.94 1282.35C1630.47 1275.95 1644.61 1274.62 1650.34 1272.75C1655.81 1271.15 1655.27 1268.75 1649.14 1267.42C1646.61 1266.89 1540.87 1266.35 1414.21 1266.22C1287.41 1265.95 1183.54 1265.42 1183.27 1265.02C1183.01 1264.62 1189.54 1253.55 1197.94 1240.35L1213.01 1216.35L1221.41 1215.42C1226.07 1214.89 1288.21 1210.75 1359.27 1206.35C1430.47 1201.95 1493.67 1198.09 1499.94 1197.69C1506.21 1197.29 1541.01 1195.15 1577.27 1192.89C1613.54 1190.62 1645.41 1188.35 1647.94 1187.82C1655.01 1186.35 1653.94 1183.29 1645.94 1182.09C1642.34 1181.55 1594.34 1179.82 1539.27 1178.35C1484.34 1176.89 1418.34 1175.02 1392.61 1174.35C1367.01 1173.69 1322.34 1172.49 1293.41 1171.69C1264.47 1170.89 1240.47 1170.09 1240.21 1169.69C1239.81 1169.42 1247.27 1156.75 1256.61 1141.69L1273.54 1114.35H1318.34C1409.54 1114.49 1804.21 1119.69 1805.54 1120.89C1805.94 1121.29 1807.41 1137.82 1808.47 1157.69C1809.67 1177.42 1811.81 1212.89 1813.27 1236.35C1814.74 1259.82 1817.14 1299.15 1818.61 1323.69C1820.07 1348.22 1823.54 1404.89 1826.21 1449.69C1831.67 1540.49 1832.21 1569.82 1828.87 1584.49C1825.94 1597.55 1820.87 1610.49 1815.01 1620.09C1805.67 1635.42 1786.74 1651.42 1774.34 1654.35C1771.14 1655.15 1740.74 1658.49 1706.61 1661.82C1672.47 1665.02 1613.14 1671.02 1574.61 1675.02C1536.07 1679.02 1477.94 1685.02 1445.27 1688.35C1355.27 1697.55 1279.14 1705.55 1211.27 1712.89C1147.27 1719.95 1097.01 1725.29 845.275 1751.69C676.875 1769.42 663.941 1770.75 630.608 1774.35C581.275 1779.69 575.408 1779.95 561.008 1778.49C507.142 1772.62 464.475 1732.89 455.275 1680.09C454.075 1673.69 452.608 1658.75 451.941 1647.02C450.075 1617.69 441.941 1476.22 438.608 1417.69C437.141 1391.29 434.075 1339.02 431.941 1301.69C429.808 1264.22 427.141 1215.42 425.941 1193.02C424.875 1170.62 422.341 1126.89 420.608 1095.69C416.608 1027.02 412.875 958.755 409.275 885.688C407.808 855.555 404.475 793.555 401.941 747.688C395.408 631.288 393.808 601.822 389.941 525.022C385.008 426.222 383.941 409.155 382.475 401.022C376.741 372.222 360.875 341.422 340.875 320.888C322.741 302.222 303.275 290.622 279.141 284.088C267.541 280.888 263.408 280.488 244.608 280.488C221.941 280.488 214.875 281.688 198.075 288.488C193.675 290.222 189.941 291.422 189.541 291.022C188.475 289.955 199.541 272.355 207.675 262.088C228.075 236.488 253.675 220.088 286.341 211.555C306.741 206.222 332.075 205.555 351.808 209.688ZM542.608 231.022C555.408 232.755 579.808 236.088 596.608 238.355C734.075 256.888 911.275 282.088 920.475 284.355C936.608 288.488 954.208 299.688 970.341 315.955C982.741 328.488 990.742 339.822 998.208 355.288C1008.21 376.222 1012.07 395.688 1014.61 439.155C1015.41 453.022 1016.87 465.688 1018.47 471.955C1025.67 500.222 1041.41 525.155 1061.67 540.488C1078.87 553.422 1092.74 557.822 1129.27 561.688C1139.94 562.755 1166.87 565.688 1189.27 568.355C1252.74 575.555 1371.14 588.622 1401.27 591.688C1416.34 593.155 1442.07 595.955 1458.61 597.688C1512.74 603.555 1517.01 603.822 1527.01 601.688C1539.27 599.155 1547.94 594.088 1557.27 584.088C1572.07 568.355 1579.54 546.088 1577.94 523.022C1575.67 489.422 1570.34 461.822 1563.27 445.688C1554.34 425.688 1536.07 403.555 1518.47 391.688C1514.07 388.622 1510.87 385.688 1511.14 385.155C1511.94 383.955 1512.21 383.955 1539.27 387.688C1550.34 389.155 1584.21 393.688 1614.61 397.688C1720.61 411.822 1720.21 411.688 1739.41 421.422C1774.07 438.888 1807.01 471.688 1824.87 506.622C1838.87 533.955 1843.27 553.022 1845.94 599.022C1846.34 606.355 1848.74 647.422 1851.27 690.355C1853.81 733.288 1856.21 774.355 1856.61 781.688C1857.27 794.888 1859.41 831.955 1863.27 901.688C1864.34 921.422 1866.21 953.822 1867.41 973.688C1870.34 1024.09 1869.27 1032.22 1857.81 1047.82C1849.67 1058.89 1849.67 1058.89 1811.27 1057.82C1600.21 1052.22 1525.94 1050.22 1473.94 1049.02C1440.21 1048.22 1382.07 1046.75 1344.61 1045.69C1249.94 1042.89 1245.41 1043.02 1237.54 1046.62C1227.54 1051.42 1221.94 1058.35 1201.27 1091.55C1190.61 1108.62 1180.87 1123.69 1179.67 1125.02C1177.67 1127.15 1175.67 1127.29 1163.67 1126.89C1142.47 1125.95 1040.07 1122.62 947.275 1119.69C901.142 1118.22 838.075 1116.09 807.275 1115.02C776.475 1113.95 729.675 1112.49 703.275 1111.55C676.875 1110.75 651.942 1109.69 647.942 1109.29L640.608 1108.35L639.542 1087.15C638.875 1075.55 638.875 1065.55 639.542 1065.02C640.075 1064.49 660.742 1063.29 685.275 1062.49C709.808 1061.55 768.342 1059.15 815.275 1057.02C862.208 1054.75 926.742 1051.82 958.608 1050.35C1019.81 1047.55 1027.94 1046.89 1027.94 1045.02C1027.94 1043.15 1026.74 1043.02 961.942 1036.35C929.008 1033.02 875.275 1027.15 842.608 1023.55C751.275 1013.29 713.142 1009.29 673.275 1005.55C653.142 1003.55 636.208 1001.69 635.675 1001.15C635.275 1000.75 634.475 990.622 633.942 978.888L633.008 957.422L645.408 956.488C652.341 956.088 668.875 955.288 682.341 954.888C695.675 954.355 706.875 953.555 707.275 953.022C707.942 951.955 703.275 936.222 697.275 919.555L693.008 907.955L661.141 907.022C643.675 906.488 629.275 905.688 629.275 905.155C629.275 903.688 620.475 743.288 614.075 627.022C610.741 567.555 606.742 495.288 605.275 466.355C603.808 437.422 601.942 407.155 601.275 399.288C595.942 343.955 573.675 291.022 540.208 254.888C532.342 246.488 524.075 238.755 513.141 229.955L508.608 226.222L513.942 226.888C516.875 227.288 529.808 229.155 542.608 231.022ZM268.208 365.022C283.541 369.822 296.608 381.022 305.675 397.155C314.742 413.288 315.541 419.155 319.275 497.688C324.608 611.022 329.008 698.622 332.608 764.355C334.475 798.088 337.408 855.022 339.275 891.022C343.808 979.022 349.941 1098.49 353.941 1176.35C355.675 1211.55 358.075 1258.62 359.275 1281.02C364.875 1395.02 367.808 1448.35 375.941 1595.69C380.475 1678.22 380.875 1683.42 383.408 1697.69C392.342 1746.22 422.341 1795.69 460.075 1823.69C472.208 1832.75 492.741 1843.42 506.608 1848.09C538.208 1858.49 553.675 1858.62 636.608 1849.29C669.675 1845.55 720.875 1839.69 750.608 1836.35C780.341 1833.02 845.408 1825.55 895.275 1819.69C945.142 1813.82 1018.34 1805.42 1057.94 1801.02C1097.54 1796.49 1153.01 1790.22 1181.27 1786.89C1209.54 1783.69 1316.34 1771.69 1418.61 1760.35C1759.94 1722.22 1781.94 1719.69 1791.81 1717.55C1805.94 1714.62 1814.21 1711.15 1822.34 1705.02C1826.21 1702.09 1829.67 1699.69 1829.94 1699.69C1831.54 1699.69 1830.34 1708.09 1827.81 1716.49C1817.41 1750.35 1793.27 1777.42 1765.01 1786.89C1761.54 1787.95 1696.34 1797.02 1620.34 1807.02C1544.21 1816.89 1440.87 1830.35 1390.61 1836.89C1340.34 1843.55 1270.74 1852.49 1235.94 1857.02C1201.14 1861.42 1130.07 1870.75 1077.94 1877.69C993.142 1889.02 809.008 1913.29 743.942 1921.69C691.542 1928.49 616.741 1938.35 590.608 1941.95C534.608 1949.42 505.008 1946.09 468.608 1928.35C449.541 1919.02 436.475 1909.55 419.808 1893.02C396.208 1869.42 379.675 1842.09 368.608 1808.49C359.808 1781.42 356.875 1759.69 353.275 1692.75C351.808 1665.42 349.675 1626.75 348.608 1607.02C346.341 1565.15 341.941 1479.15 335.275 1345.02C329.541 1227.29 324.875 1138.62 320.608 1060.35C318.741 1027.29 316.341 981.422 315.275 958.355C314.075 935.288 311.675 887.555 309.941 852.355C308.075 817.155 305.941 775.422 305.141 759.688C304.475 743.955 302.608 708.222 301.141 680.355C299.808 652.488 296.475 587.688 293.941 536.355C288.741 429.555 288.741 429.822 285.008 419.822C281.541 410.888 271.541 400.355 261.941 395.688C251.941 390.888 235.541 391.022 225.008 395.955C210.075 402.888 195.808 419.955 190.608 436.755C187.941 445.288 187.941 450.888 187.941 1175.69C187.941 1693.69 188.341 1909.15 189.408 1916.62C193.408 1945.82 208.208 1970.75 231.141 1987.02C252.875 2002.35 271.941 2006.89 300.875 2003.82C328.608 2000.89 364.741 1998.35 378.608 1998.49C386.341 1998.49 392.075 1998.75 391.275 1999.15C390.075 1999.55 334.875 2006.62 303.275 2010.35C287.675 2012.22 260.608 2011.95 250.341 2009.82C207.275 2000.62 176.875 1969.69 164.875 1922.75L161.941 1911.02V1172.35V433.688L165.541 423.555C177.141 390.888 203.808 367.155 234.475 362.355C244.208 360.888 258.341 361.955 268.208 365.022ZM1149.81 1171.95C1149.27 1172.89 1142.74 1183.69 1135.14 1195.82L1121.41 1217.95L1022.34 1218.75C896.342 1219.95 666.875 1219.95 656.208 1218.89L648.075 1217.95L647.408 1209.82C647.008 1205.42 646.342 1195.95 645.942 1188.89L645.141 1175.95L664.208 1175.15C684.608 1174.35 1006.34 1170.89 1096.34 1170.62C1139.54 1170.35 1150.61 1170.75 1149.81 1171.95ZM1090.47 1271.29C1090.47 1271.95 1084.34 1281.95 1076.87 1293.69L1063.27 1315.02L1040.61 1315.95C1028.07 1316.35 993.408 1317.42 963.275 1318.35C933.275 1319.15 884.875 1320.62 855.942 1321.69C808.342 1323.42 773.008 1324.62 682.341 1327.29L652.341 1328.09L651.275 1307.82C650.742 1296.62 650.608 1287.29 650.875 1287.02C651.541 1286.35 696.341 1284.35 774.608 1281.69C908.608 1277.02 1036.21 1272.35 1061.27 1271.29C1081.14 1270.35 1090.61 1270.35 1090.47 1271.29ZM1028.87 1376.22C1028.47 1377.15 1021.94 1387.55 1014.21 1399.29L1000.34 1420.62L974.475 1421.55C947.808 1422.49 867.808 1426.22 736.341 1432.49C695.008 1434.49 660.875 1435.69 660.341 1435.15C659.275 1434.22 657.142 1395.42 657.942 1394.49C658.608 1393.95 677.275 1392.75 725.275 1390.49C791.408 1387.15 865.275 1383.15 936.608 1379.02C1027.67 1373.82 1029.81 1373.69 1028.87 1376.22ZM966.475 1483.29C966.608 1483.95 960.875 1493.82 953.675 1505.42C944.875 1519.82 939.941 1526.62 938.075 1527.02C936.475 1527.29 902.875 1529.69 863.275 1532.35C823.675 1534.89 763.542 1539.02 729.542 1541.29C695.675 1543.55 667.675 1545.15 667.275 1544.75C666.342 1543.82 664.341 1507.15 665.141 1506.09C665.541 1505.69 687.542 1503.69 713.942 1501.69C833.942 1492.89 933.808 1485.02 955.275 1482.49C964.608 1481.42 966.075 1481.55 966.475 1483.29Z" fill="black"/>
</svg>
